# xmcd
#
# Track frame offsets:
#	150
#	19054
#	42253
#	66320
#	95306
#	130977
#	145618
#	185666
#	212278
#	234566
#	249395
#	269778
#	283461
#	307363
#
# Disc length: 4305 seconds
#
# Revision: 0
# Processed by: cddbd v1.5.2PL0 Copyright (c) Steve Scherf et al.
# Submitted via: EasyCDDAExtractor 10.2.0.1
#
DISCID=da10cf0e
DTITLE=Van Morrison -  The Best Of Van Morrison, Vol. 3 [cd1]
DYEAR=2007
DGENRE=Blues
TTITLE0=Cry For Home
TTITLE1=Too Long in Exile
TTITLE2=Gloria
TTITLE3=Help Me
TTITLE4=Lonely Avenue, 4 O`clock In Th
TTITLE5=Days Like This
TTITLE6=Ancient Highway
TTITLE7=Raincheck
TTITLE8=Moondance
TTITLE9=Centerpiece
TTITLE10=That's Life
TTITLE11=Benediction
TTITLE12=The Healing Game
TTITLE13=I Don't Want To Go On Without You
EXTD=
EXTT0=
EXTT1=
EXTT2=
EXTT3=
EXTT4=
EXTT5=
EXTT6=
EXTT7=
EXTT8=
EXTT9=
EXTT10=
EXTT11=
EXTT12=
EXTT13=
PLAYORDER=
